HIERARCHY
ROOT hip
{
	OFFSET 0.000000 103.560692 0.219151
	CHANNELS 6 Xposition Yposition Zposition Zrotation Xrotation Yrotation
	JOINT pelvis
	{
		OFFSET 0.000000 1.955040 1.591925
		CHANNELS 3 Zrotation Xrotation Yrotation
		JOINT lThigh
		{
			OFFSET 8.341582 -7.629402 -0.646910
			CHANNELS 3 Zrotation Xrotation Yrotation
			JOINT lShin
			{
				OFFSET 2.185763 -45.093132 -0.705710
				CHANNELS 3 Zrotation Xrotation Yrotation
				JOINT lFoot
				{
					OFFSET 0.730976 -46.379768 -2.264282
					CHANNELS 3 Zrotation Xrotation Yrotation
					JOINT lToe
					{
						OFFSET 2.797621 -4.200020 10.742415
						CHANNELS 3 Zrotation Xrotation Yrotation
						JOINT lBigToe
						{
							OFFSET -2.433708 -0.269072 1.841711
							CHANNELS 3 Zrotation Xrotation Yrotation
							End Site
							{
								OFFSET -10.527346 -33.657166 -1.340707
							}
						}
					}
				}
			}
		}
		JOINT rThigh
		{
			OFFSET -8.341582 -7.629402 -0.646910
			CHANNELS 3 Zrotation Xrotation Yrotation
			JOINT rShin
			{
				OFFSET -2.185763 -45.093132 -0.705710
				CHANNELS 3 Zrotation Xrotation Yrotation
				JOINT rFoot
				{
					OFFSET -0.730976 -46.379768 -2.264282
					CHANNELS 3 Zrotation Xrotation Yrotation
					JOINT rToe
					{
						OFFSET -2.797621 -4.200019 10.742415
						CHANNELS 3 Zrotation Xrotation Yrotation
						JOINT rBigToe
						{
							OFFSET 2.433708 -0.269072 1.841711
							CHANNELS 3 Zrotation Xrotation Yrotation
							End Site
							{
								OFFSET 0.000000 24.298409 -0.425647
							}
						}
					}
				}
			}
		}
	}
	JOINT abdomen
	{
		OFFSET 0.000000 1.841293 -3.551421
		CHANNELS 3 Zrotation Xrotation Yrotation
		JOINT abdomen2
		{
			OFFSET 0.000000 5.439911 3.419600
			CHANNELS 3 Zrotation Xrotation Yrotation
			JOINT chest
			{
				OFFSET 0.000000 14.715073 -2.918270
				CHANNELS 3 Zrotation Xrotation Yrotation
				JOINT neck
				{
					OFFSET 0.000000 26.294655 -1.248052
					CHANNELS 3 Zrotation Xrotation Yrotation
					JOINT head
					{
						OFFSET 0.000000 8.807068 1.063695
						CHANNELS 3 Zrotation Xrotation Yrotation
						JOINT rEye
						{
							OFFSET -3.030866 6.632080 7.702687
							CHANNELS 3 Zrotation Xrotation Yrotation
							End Site
							{
								OFFSET 2.969555 -11.022598 8.626689
							}
						}
						JOINT lEye
						{
							OFFSET 3.030866 6.632080 7.702687
							CHANNELS 3 Zrotation Xrotation Yrotation
							End Site
							{
								OFFSET 0.000000 -15.881760 10.104412
							}
						}
						JOINT upperJaw
						{
							OFFSET 0.000000 1.922699 2.891887
							CHANNELS 3 Zrotation Xrotation Yrotation
							End Site
							{
								OFFSET 0.000000 -19.386169 10.230839
							}
						}
						JOINT lowerJaw
						{
							OFFSET 0.000000 1.857620 2.686640
							CHANNELS 3 Zrotation Xrotation Yrotation
							JOINT tongueBase
							{
								OFFSET 0.000000 -3.019135 2.746916
								CHANNELS 3 Zrotation Xrotation Yrotation
								JOINT tongue01
								{
									OFFSET 0.000000 0.664124 0.223355
									CHANNELS 3 Zrotation Xrotation Yrotation
									JOINT tongue02
									{
										OFFSET 0.000000 0.339737 0.715627
										CHANNELS 3 Zrotation Xrotation Yrotation
										JOINT tongue03
										{
											OFFSET 0.000000 0.123444 0.730634
											CHANNELS 3 Zrotation Xrotation Yrotation
											JOINT tongue04
											{
												OFFSET 0.000000 0.017212 0.737415
												CHANNELS 3 Zrotation Xrotation Yrotation
												JOINT tongue05
												{
													OFFSET 0.000000 -0.021011 0.632440
													CHANNELS 3 Zrotation Xrotation Yrotation
													JOINT tongueTip
													{
														OFFSET 0.000000 -0.014404 0.601796
														CHANNELS 3 Zrotation Xrotation Yrotation
														End Site
														{
															OFFSET -14.139406 -2.625778 0.472826
														}
													}
												}
											}
										}
									}
								}
							}
						}
					}
				}
				JOINT rCollar
				{
					OFFSET -2.109295 21.452370 3.768136
					CHANNELS 3 Zrotation Xrotation Yrotation
					JOINT rShldr
					{
						OFFSET -11.491621 -2.568573 -4.940255
						CHANNELS 3 Zrotation Xrotation Yrotation
						JOINT rForeArm
						{
							OFFSET -28.789030 -0.213806 2.098380
							CHANNELS 3 Zrotation Xrotation Yrotation
							JOINT rHand
							{
								OFFSET -22.260895 -0.869583 10.391586
								CHANNELS 3 Zrotation Xrotation Yrotation
								JOINT rThumb1
								{
									OFFSET -0.628075 0.137405 2.362409
									CHANNELS 3 Zrotation Xrotation Yrotation
									JOINT rThumb2
									{
										OFFSET 0.085205 -0.600235 3.826079
										CHANNELS 3 Zrotation Xrotation Yrotation
										JOINT rThumb3
										{
											OFFSET -1.255478 -0.879211 2.439162
											CHANNELS 3 Zrotation Xrotation Yrotation
											End Site
											{
												OFFSET -2.963715 0.538574 4.059553
											}
										}
									}
								}
								JOINT rCarpal1
								{
									OFFSET -0.855530 1.026047 1.621985
									CHANNELS 3 Zrotation Xrotation Yrotation
									JOINT rIndex1
									{
										OFFSET -3.951324 0.390884 3.873290
										CHANNELS 3 Zrotation Xrotation Yrotation
										JOINT rIndex2
										{
											OFFSET -3.071884 -1.259598 2.506104
											CHANNELS 3 Zrotation Xrotation Yrotation
											JOINT rIndex3
											{
												OFFSET -1.394112 -1.446640 1.203302
												CHANNELS 3 Zrotation Xrotation Yrotation
												End Site
												{
													OFFSET -3.392448 -1.258026 0.533405
												}
											}
										}
									}
									JOINT rMid1
									{
										OFFSET -5.422974 0.107910 2.002650
										CHANNELS 3 Zrotation Xrotation Yrotation
										JOINT rMid2
										{
											OFFSET -3.599533 -1.323776 2.090647
											CHANNELS 3 Zrotation Xrotation Yrotation
											JOINT rMid3
											{
												OFFSET -1.360191 -1.598495 1.068055
												CHANNELS 3 Zrotation Xrotation Yrotation
												End Site
												{
													OFFSET -4.087769 -0.460876 0.069540
												}
											}
										}
									}
								}
								JOINT rCarpal2
								{
									OFFSET -1.942749 0.556229 -0.337217
									CHANNELS 3 Zrotation Xrotation Yrotation
									JOINT rRing1
									{
										OFFSET -4.762787 -0.121170 2.349089
										CHANNELS 3 Zrotation Xrotation Yrotation
										JOINT rRing2
										{
											OFFSET -3.380348 -1.337097 1.356700
											CHANNELS 3 Zrotation Xrotation Yrotation
											JOINT rRing3
											{
												OFFSET -1.430290 -1.499649 0.914224
												CHANNELS 3 Zrotation Xrotation Yrotation
												End Site
												{
													OFFSET -1.783272 -2.215851 -0.391895
												}
											}
										}
									}
									JOINT rPinky1
									{
										OFFSET -5.232559 -1.313721 0.336493
										CHANNELS 3 Zrotation Xrotation Yrotation
										JOINT rPinky2
										{
											OFFSET -2.217606 -1.389603 0.800693
											CHANNELS 3 Zrotation Xrotation Yrotation
											JOINT rPinky3
											{
												OFFSET -0.886887 -1.462280 0.774199
												CHANNELS 3 Zrotation Xrotation Yrotation
												End Site
												{
													OFFSET 14.139406 -2.625778 0.472826
												}
											}
										}
									}
								}
							}
						}
					}
				}
				JOINT lCollar
				{
					OFFSET 2.109295 21.452370 3.768136
					CHANNELS 3 Zrotation Xrotation Yrotation
					JOINT lShldr
					{
						OFFSET 11.491621 -2.568573 -4.940255
						CHANNELS 3 Zrotation Xrotation Yrotation
						JOINT lForeArm
						{
							OFFSET 28.789030 -0.213806 2.098380
							CHANNELS 3 Zrotation Xrotation Yrotation
							JOINT lHand
							{
								OFFSET 22.260895 -0.869583 10.391586
								CHANNELS 3 Zrotation Xrotation Yrotation
								JOINT lThumb1
								{
									OFFSET 0.628075 0.137405 2.362409
									CHANNELS 3 Zrotation Xrotation Yrotation
									JOINT lThumb2
									{
										OFFSET -0.085205 -0.600235 3.826079
										CHANNELS 3 Zrotation Xrotation Yrotation
										JOINT lThumb3
										{
											OFFSET 1.255478 -0.879211 2.439162
											CHANNELS 3 Zrotation Xrotation Yrotation
											End Site
											{
												OFFSET 2.963715 0.538574 4.059553
											}
										}
									}
								}
								JOINT lCarpal1
								{
									OFFSET 0.855530 1.026047 1.621985
									CHANNELS 3 Zrotation Xrotation Yrotation
									JOINT lIndex1
									{
										OFFSET 3.951324 0.390884 3.873290
										CHANNELS 3 Zrotation Xrotation Yrotation
										JOINT lIndex2
										{
											OFFSET 3.071884 -1.259598 2.506104
											CHANNELS 3 Zrotation Xrotation Yrotation
											JOINT lIndex3
											{
												OFFSET 1.394112 -1.446640 1.203302
												CHANNELS 3 Zrotation Xrotation Yrotation
												End Site
												{
													OFFSET 3.392448 -1.258026 0.533405
												}
											}
										}
									}
									JOINT lMid1
									{
										OFFSET 5.422974 0.107910 2.002650
										CHANNELS 3 Zrotation Xrotation Yrotation
										JOINT lMid2
										{
											OFFSET 3.599533 -1.323776 2.090647
											CHANNELS 3 Zrotation Xrotation Yrotation
											JOINT lMid3
											{
												OFFSET 1.360191 -1.598495 1.068055
												CHANNELS 3 Zrotation Xrotation Yrotation
												End Site
												{
													OFFSET 4.087769 -0.460876 0.069540
												}
											}
										}
									}
								}
								JOINT lCarpal2
								{
									OFFSET 1.942749 0.556229 -0.337217
									CHANNELS 3 Zrotation Xrotation Yrotation
									JOINT lRing1
									{
										OFFSET 4.762787 -0.121170 2.349089
										CHANNELS 3 Zrotation Xrotation Yrotation
										JOINT lRing2
										{
											OFFSET 3.380348 -1.337097 1.356700
											CHANNELS 3 Zrotation Xrotation Yrotation
											JOINT lRing3
											{
												OFFSET 1.430290 -1.499649 0.914224
												CHANNELS 3 Zrotation Xrotation Yrotation
												End Site
												{
													OFFSET 1.783272 -2.215851 -0.391895
												}
											}
										}
									}
									JOINT lPinky1
									{
										OFFSET 5.232559 -1.313721 0.336493
										CHANNELS 3 Zrotation Xrotation Yrotation
										JOINT lPinky2
										{
											OFFSET 2.217606 -1.389603 0.800693
											CHANNELS 3 Zrotation Xrotation Yrotation
											JOINT lPinky3
											{
												OFFSET 0.886887 -1.462280 0.774199
												CHANNELS 3 Zrotation Xrotation Yrotation
												End Site
												{
													OFFSET -10.295957 -17.050110 17.461308
												}
											}
										}
									}
								}
							}
						}
					}
				}
				JOINT rPectoral
				{
					OFFSET -6.358840 6.360771 6.369920
					CHANNELS 3 Zrotation Xrotation Yrotation
					End Site
					{
						OFFSET 10.295957 -17.050110 17.461308
					}
				}
				JOINT lPectoral
				{
					OFFSET 6.358840 6.360771 6.369920
					CHANNELS 3 Zrotation Xrotation Yrotation
					End Site
					{
						OFFSET 10.295957 -17.050110 17.461308
					}
				}
			}
		}
	}
}
MOTION
Frames:	4
Frame Time:	0.0333333
0.274638 0.884297 0.233140 0.101475 3.741996 -1.420996 0.000000 0.000000 0.000000 3.710875 -7.491732 -1.022936 -1.523726 7.471938 -6.744670 3.407458 -19.791565 -8.297762 3.991153 -8.733521 1.889978 0.000000 0.000000 0.000000 -1.679491 -7.175689 4.348388 2.656667 6.545955 11.940412 -6.346097 -19.194424 -9.146339 -4.409970 -8.107407 -1.726686 0.000000 0.000000 0.000000 1.570320 -1.053995 -2.284086 0.000000 0.000000 0.000000 -1.671765 4.299930 -1.156415 1.387251 -15.425611 1.519432 -0.716927 11.559652 2.398751 0.000000 0.000000 0.000000 0.000000 0.000000 0.000000 0.000000 0.000000 0.000000 0.000000 0.000000 0.000000 0.000000 0.000000 0.000000 0.000000 0.000000 0.000000 0.000000 0.000000 0.000000 0.000000 0.000000 0.000000 0.000000 0.000000 0.000000 0.000000 0.000000 0.000000 0.000000 0.000000 0.000000 12.583430 -0.286497 -5.319181 42.217178 38.967335 4.308104 2.891003 4.197699 23.870720 -5.632447 -7.556053 22.954674 -17.850634 3.036698 2.091062 -3.497737 -14.804447 16.476692 -6.449727 7.792267 22.598549 0.000000 0.000000 0.000000 -18.743572 -12.071953 -18.011953 -4.337284 -1.693668 -1.474561 0.000000 0.000000 0.000000 -14.970901 -6.234416 -8.562676 -2.562147 1.747061 -3.928813 -0.373709 3.951390 -2.259271 0.000000 0.000000 0.000000 -17.068861 -10.375749 -3.993316 2.155724 4.024392 -7.002051 -1.164580 7.219567 -4.076684 -32.639996 -23.729628 -19.365446 1.828974 6.248675 -6.965054 17.964828 17.568878 -2.430228 -8.909133 -0.237866 5.451631 -48.979111 31.069237 -1.328611 -6.129543 3.279451 -17.611338 -1.393470 -0.715726 -26.915686 16.129194 6.511067 -3.648552 5.932786 -13.897329 -7.732299 8.510882 8.675430 -19.074831 0.000000 0.000000 0.000000 20.099018 -12.330547 19.627775 4.428369 -3.311951 -0.084440 4.286091 -2.850766 0.956873 15.984082 -6.615920 9.024383 3.641824 1.403706 4.086008 -2.678450 5.613838 1.501656 0.000000 0.000000 0.000000 21.348347 -11.070040 6.571085 -6.899331 7.329236 6.516497 -9.231994 9.601250 0.336566 33.610039 -23.317104 20.307272 -1.650960 7.373545 6.630901 -22.906290 12.367834 -2.168625 0.184297 -0.009373 -0.541189 -0.181723 -0.009230 0.533630 
0.296511 0.875990 0.251705 0.033156 3.769385 -1.391338 0.000000 0.000000 0.000000 3.768535 -7.641992 -1.074474 -1.539230 7.736171 -6.687358 3.450612 -19.925659 -8.308157 3.991153 -8.733521 1.889978 0.000000 0.000000 0.000000 -1.627254 -7.143527 4.325145 2.659657 6.450000 11.979336 -6.357679 -19.152088 -9.180353 -4.398877 -8.118387 -1.726244 0.000000 0.000000 0.000000 1.832401 -0.957343 -2.197754 0.000000 0.000000 0.000000 -1.905418 4.144813 -1.047616 1.140251 -15.269930 1.517168 -0.475530 11.521028 2.260125 0.000000 0.000000 0.000000 0.000000 0.000000 0.000000 0.000000 0.000000 0.000000 0.000000 0.000000 0.000000 0.000000 0.000000 0.000000 0.000000 0.000000 0.000000 0.000000 0.000000 0.000000 0.000000 0.000000 0.000000 0.000000 0.000000 0.000000 0.000000 0.000000 0.000000 0.000000 0.000000 0.000000 12.156007 -0.302539 -5.436193 39.892941 39.748253 3.618787 2.362220 5.420384 30.283180 -6.145257 -8.167499 24.545790 -17.439301 2.067471 3.177352 -3.343631 -14.840350 16.998915 -5.485411 6.941337 23.221354 0.000000 0.000000 0.000000 -19.418369 -12.339790 -18.128523 -4.497470 -1.839411 -1.488185 0.000000 0.000000 0.000000 -15.477421 -6.456332 -8.685558 -2.718075 1.643984 -3.939754 -0.440978 3.900269 -2.266296 0.000000 0.000000 0.000000 -17.820387 -10.529152 -4.327243 2.020194 3.968417 -7.003618 -1.357666 7.129704 -4.089087 -33.484917 -23.645891 -19.717661 1.893617 6.273129 -6.962578 17.476635 17.285997 -2.486851 -8.586109 -0.261635 5.631731 -47.607731 31.922646 -1.260125 -5.881811 5.187901 -20.601467 -0.721448 -1.219493 -28.666277 15.909365 5.304103 -4.622346 5.593276 -14.030086 -8.933129 7.432814 7.673219 -19.959366 0.000000 0.000000 0.000000 20.747932 -12.604538 19.664801 4.603364 -3.482526 -0.067680 4.019366 -2.602146 0.937453 16.493103 -6.833728 9.151067 3.798002 1.301300 4.098102 -2.611710 5.561738 1.506793 0.000000 0.000000 0.000000 21.866867 -11.156842 6.866138 -6.268945 7.076272 6.507292 -9.043489 9.497193 0.330556 34.530960 -23.223705 20.694820 -1.635846 7.342299 6.672901 -22.520348 12.151289 -2.155172 0.187173 -0.009533 -0.549638 -0.187084 -0.009528 0.549376 
0.316972 0.868218 0.269071 -0.031230 3.795154 -1.363348 0.000000 0.000000 0.000000 3.822695 -7.780857 -1.122960 -1.553963 7.979186 -6.633535 3.491093 -20.048985 -8.318130 3.991153 -8.733521 1.889978 0.000000 0.000000 0.000000 -1.578101 -7.112870 4.303278 2.662517 6.358441 12.016247 -6.368033 -19.111652 -9.212051 -4.388291 -8.128767 -1.725820 0.000000 0.000000 0.000000 2.079263 -0.866078 -2.117224 0.000000 0.000000 0.000000 -2.125410 3.998716 -0.946270 0.908134 -15.122833 1.516411 -0.248005 11.484414 2.129989 0.000000 0.000000 0.000000 0.000000 0.000000 0.000000 0.000000 0.000000 0.000000 0.000000 0.000000 0.000000 0.000000 0.000000 0.000000 0.000000 0.000000 0.000000 0.000000 0.000000 0.000000 0.000000 0.000000 0.000000 0.000000 0.000000 0.000000 0.000000 0.000000 0.000000 0.000000 0.000000 0.000000 11.753295 -0.317521 -5.546331 36.924118 40.313084 2.270680 1.780833 6.450037 39.247280 -6.617351 -8.723447 26.045725 -17.023026 1.166564 4.209313 -3.198148 -14.873343 17.491320 -4.553687 6.167405 23.825298 0.000000 0.000000 0.000000 -20.056175 -12.590188 -18.243832 -4.648446 -1.976665 -1.501414 0.000000 0.000000 0.000000 -15.955317 -6.664946 -8.803294 -2.864961 1.546980 -3.950206 -0.504380 3.852036 -2.272859 0.000000 0.000000 0.000000 -18.528765 -10.672494 -4.644256 1.892445 3.915578 -7.005216 -1.539556 7.044910 -4.100844 -34.279968 -23.565069 -20.049513 1.954587 6.296219 -6.960323 17.017069 17.019556 -2.542451 -8.281785 -0.284070 5.801438 -46.363426 32.743462 -1.240753 -5.509331 6.966674 -23.359261 -0.095200 -1.682269 -30.312458 15.665428 4.172606 -5.544106 5.270637 -14.149047 -10.065897 6.384991 6.769809 -20.811676 0.000000 0.000000 0.000000 21.361294 -12.861413 19.704254 4.770449 -3.645174 -0.051244 3.768277 -2.367644 0.920229 16.972719 -7.038255 9.272127 3.945213 1.204904 4.109741 -2.548903 5.512633 1.511704 0.000000 0.000000 0.000000 22.355024 -11.237997 7.144920 -5.675623 6.837911 6.501236 -8.865957 9.399089 0.325259 35.397461 -23.134590 21.060207 -1.621446 7.312755 6.712355 -22.157318 11.947324 -2.140938 0.189911 -0.009686 -0.557680 -0.192154 -0.009811 0.564265 
0.336514 0.860796 0.285658 -0.097677 3.821630 -1.334476 0.000000 0.000000 0.000000 3.878390 -7.921365 -1.172811 -1.569178 8.224267 -6.578567 3.532065 -20.173153 -8.328127 3.991153 -8.733521 1.889978 0.000000 0.000000 0.000000 -1.527383 -7.080726 4.280620 2.665476 6.263302 12.054301 -6.378925 -19.069304 -9.245151 -4.377520 -8.139481 -1.725393 0.000000 0.000000 0.000000 2.333763 -0.771863 -2.035050 0.000000 0.000000 0.000000 -2.352177 3.848175 -0.842986 0.668977 -14.971015 1.516727 -0.013819 11.446465 1.996102 0.000000 0.000000 0.000000 0.000000 0.000000 0.000000 0.000000 0.000000 0.000000 0.000000 0.000000 0.000000 0.000000 0.000000 0.000000 0.000000 0.000000 0.000000 0.000000 0.000000 0.000000 0.000000 0.000000 0.000000 0.000000 0.000000 0.000000 0.000000 0.000000 0.000000 0.000000 0.000000 0.000000 11.338020 -0.333100 -5.659698 34.609112 41.136688 1.889924 1.129774 7.555888 45.324970 -7.092887 -9.275548 27.592381 -16.564844 0.250999 5.281870 -3.047783 -14.905657 17.998766 -3.569344 5.399113 24.464157 0.000000 0.000000 0.000000 -20.714306 -12.846360 -18.367796 -4.804090 -2.118091 -1.515453 0.000000 0.000000 0.000000 -16.448439 -6.879212 -8.926558 -3.016354 1.446990 -3.961284 -0.569722 3.802400 -2.279733 0.000000 0.000000 0.000000 -19.259390 -10.818675 -4.973779 1.760924 3.861273 -7.006988 -1.726960 6.957738 -4.113416 -35.098782 -23.480247 -20.392389 2.017342 6.319928 -6.957906 16.543831 16.745758 -2.601757 -7.967836 -0.307186 5.976228 -45.141224 33.610744 -1.272106 -4.982776 8.771157 -26.126934 0.545289 -2.147037 -32.006332 15.376628 3.012711 -6.500407 4.935717 -14.265007 -11.234491 5.272635 5.881661 -21.709528 0.000000 0.000000 0.000000 21.995895 -13.124557 19.750355 4.942687 -3.812791 -0.033770 3.509704 -2.125866 0.903742 17.468029 -7.248631 9.398919 4.097016 1.105526 4.122004 -2.484147 5.461977 1.516720 0.000000 0.000000 0.000000 22.858801 -11.320721 7.433612 -5.064208 6.592082 6.497610 -8.683084 9.298256 0.319989 36.289921 -23.041605 21.437069 -1.606759 7.282349 6.752954 -21.783245 11.737133 -2.124761 0.192760 -0.009845 -0.566046 -0.197392 -0.010105 0.579652 
